<?xml version="1.0" encoding="utf-8"?>
<!-- Generator: Adobe Illustrator 26.5.0, SVG Export Plug-In . SVG Version: 6.00 Build 0)  -->
<svg version="1.1" id="Layer_1" xmlns="http://www.w3.org/2000/svg" xmlns:xlink="http://www.w3.org/1999/xlink" x="0px" y="0px"
	 viewBox="0 0 360 121" enable-background="new 0 0 360 121" xml:space="preserve">
<g>
	<path fill="#FFAB4D" d="M115.72,119.28l-3.22-13.53l-3.29,13.53h-4.07l-5.89-20.79h4.63l3.41,13.46l2.88-13.46h4.57l3.16,13.46
		l3.38-13.46h4.45l-5.82,20.79H115.72z"/>
	<path fill="#FFAB4D" d="M126.68,119.28V98.49h15.28v3.63h-11.05v4.45h10.18v3.66h-10.18v5.35h11.55v3.69H126.68z"/>
	<path fill="#FFAB4D" d="M143.34,119.28V98.49h10.24c2.05,0,3.6,0.51,4.67,1.52c1.06,1.01,1.6,2.4,1.6,4.15c0,0.9-0.24,1.7-0.72,2.4
		c-0.48,0.7-1.09,1.2-1.82,1.49c0.44,0.17,0.85,0.38,1.24,0.64c0.39,0.26,0.72,0.59,1,1c0.28,0.41,0.51,0.89,0.67,1.44
		c0.17,0.55,0.25,1.21,0.25,1.96c0,1.9-0.64,3.41-1.91,4.52c-1.27,1.12-3.23,1.68-5.86,1.68H143.34z M147.53,102.09v4.51h5.48
		c1.75,0,2.63-0.75,2.63-2.25c0-0.79-0.22-1.37-0.67-1.72c-0.45-0.35-1.19-0.53-2.21-0.53H147.53z M153.04,115.74
		c1,0,1.78-0.28,2.35-0.85c0.56-0.56,0.85-1.27,0.85-2.13c0-0.92-0.28-1.59-0.83-2c-0.55-0.42-1.32-0.63-2.3-0.63h-5.57v5.6H153.04z
		"/>
	<path fill="#FFAB4D" d="M180.63,104.63c-0.1-1.06-0.49-1.86-1.16-2.38c-0.67-0.52-1.66-0.78-2.97-0.78c-1.23,0-2.16,0.21-2.79,0.63
		c-0.63,0.42-0.94,1.02-0.94,1.82c0,0.67,0.25,1.2,0.74,1.6c0.49,0.4,1.32,0.74,2.49,1.03c1.19,0.29,2.32,0.58,3.4,0.86
		c1.07,0.28,2,0.6,2.77,0.95c0.46,0.21,0.89,0.45,1.28,0.72c0.4,0.27,0.74,0.61,1.03,1c0.29,0.4,0.52,0.87,0.69,1.41
		c0.17,0.54,0.25,1.18,0.25,1.91c0,1.15-0.2,2.13-0.61,2.96c-0.41,0.82-0.98,1.51-1.72,2.05c-0.74,0.54-1.62,0.94-2.63,1.21
		c-1.01,0.26-2.12,0.39-3.33,0.39c-1.29,0-2.47-0.14-3.54-0.42c-1.06-0.28-1.98-0.71-2.76-1.3c-0.77-0.58-1.38-1.31-1.82-2.18
		c-0.44-0.87-0.67-1.88-0.69-3.05h4.2c0.04,1.06,0.47,1.91,1.3,2.52c0.82,0.62,1.94,0.92,3.33,0.92c1.29,0,2.29-0.26,2.99-0.77
		c0.7-0.51,1.05-1.24,1.05-2.18c0-0.31-0.05-0.59-0.14-0.85c-0.09-0.25-0.26-0.49-0.5-0.7c-0.24-0.22-0.57-0.42-0.99-0.6
		c-0.42-0.18-0.95-0.34-1.6-0.49c-1.29-0.29-2.39-0.55-3.27-0.77c-0.89-0.22-1.7-0.5-2.43-0.83c-1.13-0.5-1.99-1.15-2.58-1.96
		c-0.59-0.8-0.89-1.86-0.89-3.18c0-0.94,0.16-1.8,0.47-2.58c0.31-0.78,0.79-1.46,1.42-2.02c0.64-0.56,1.43-1,2.38-1.32
		c0.95-0.31,2.06-0.47,3.33-0.47c1.31,0,2.48,0.17,3.51,0.5c1.02,0.33,1.88,0.8,2.58,1.41c0.7,0.61,1.24,1.33,1.63,2.16
		c0.39,0.84,0.6,1.75,0.64,2.76H180.63z"/>
	<path fill="#FFAB4D" d="M191.18,119.28v-17.16h-6.26v-3.63h16.91v3.63h-6.29v17.16H191.18z"/>
	<path fill="#FFAB4D" d="M215.16,98.49h4.45v13.87c0,2.53-0.74,4.43-2.22,5.71c-1.48,1.28-3.59,1.93-6.32,1.93
		c-2.53,0-4.52-0.61-6-1.82c-1.47-1.21-2.21-3.07-2.21-5.57V98.49h4.41v13.71c0,1.29,0.32,2.32,0.97,3.07
		c0.65,0.75,1.57,1.13,2.76,1.13c2.78,0,4.16-1.35,4.16-4.04V98.49z"/>
	<path fill="#FFAB4D" d="M221.21,119.28V98.49h8.05c1.4,0,2.69,0.23,3.88,0.7c1.19,0.47,2.21,1.14,3.05,2.02
		c0.85,0.88,1.51,1.94,1.99,3.19c0.48,1.25,0.72,2.67,0.72,4.26c0,1.59-0.21,3.03-0.64,4.34c-0.43,1.3-1.04,2.42-1.83,3.35
		c-0.79,0.93-1.74,1.65-2.85,2.16c-1.11,0.51-2.33,0.77-3.66,0.77H221.21z M229.03,115.74c1.9,0,3.28-0.59,4.13-1.77
		c0.86-1.18,1.28-2.95,1.28-5.31c0-1.17-0.1-2.17-0.31-3.01c-0.21-0.83-0.55-1.52-1.02-2.05c-0.47-0.53-1.07-0.92-1.8-1.16
		s-1.62-0.36-2.66-0.36h-3.22v13.65H229.03z"/>
	<path fill="#FFAB4D" d="M240.21,119.28V98.49h4.35v20.79H240.21z"/>
	<path fill="#FFAB4D" d="M255.81,120c-3.21,0-5.68-0.94-7.41-2.82s-2.58-4.58-2.58-8.11c0-1.75,0.22-3.33,0.66-4.73
		c0.44-1.4,1.09-2.58,1.94-3.55c0.86-0.97,1.9-1.71,3.13-2.22c1.23-0.51,2.65-0.77,4.26-0.77c1.59,0,3,0.26,4.24,0.77
		c1.24,0.51,2.28,1.26,3.12,2.24c0.83,0.98,1.47,2.18,1.91,3.59c0.44,1.41,0.66,3,0.66,4.77c0,3.59-0.85,6.29-2.55,8.11
		C261.48,119.09,259.02,120,255.81,120z M255.81,116.27c0.77,0,1.5-0.14,2.19-0.42c0.69-0.28,1.29-0.71,1.8-1.28
		c0.51-0.57,0.91-1.31,1.21-2.21c0.29-0.9,0.44-1.96,0.44-3.19c0-2.46-0.48-4.33-1.44-5.6c-0.96-1.27-2.36-1.91-4.2-1.91
		c-1.84,0-3.25,0.64-4.23,1.91c-0.98,1.27-1.47,3.14-1.47,5.6c0,2.46,0.5,4.26,1.49,5.4C252.59,115.71,253.99,116.27,255.81,116.27z
		"/>
</g>
<g>
	<path fill="#FFAB4D" d="M32.93,61.42c-1.34,0.28-2.12,0.36-2.12,0.36c0.16-0.04,0.31-0.08,0.46-0.13
		C31.83,61.6,32.38,61.51,32.93,61.42z"/>
	<path fill="#FFAB4D" d="M177.89,61.54c-1.34,0.28-2.12,0.36-2.12,0.36c0.16-0.04,0.31-0.08,0.46-0.13
		C176.79,61.72,177.35,61.64,177.89,61.54z"/>
	<path fill="#FFAB4D" d="M65.43,13.62"/>
	<g>
		<g>
			<path fill="#FFAB4D" d="M144.55,38.52c0-20.22,15.39-35.12,36.21-35.12c10.06,0,19.14,3.35,25.26,10.06l-4.64,4.64
				c-5.62-5.72-12.53-8.19-20.42-8.19c-16.67,0-29.2,12.23-29.2,28.61s12.53,28.61,29.2,28.61c7.89,0,14.8-2.47,20.42-8.29
				l4.64,4.64c-6.12,6.71-15.19,10.16-25.36,10.16C159.94,73.64,144.55,58.75,144.55,38.52z"/>
			<path fill="#FFAB4D" d="M180.66,76.25c-10.71,0-20.53-3.81-27.64-10.71c-7.14-6.94-11.08-16.53-11.08-27.02
				c0-10.49,3.94-20.09,11.09-27.02C160.15,4.59,170,0.79,180.75,0.79c11.11,0,20.77,3.88,27.19,10.92l1.68,1.84l-8.26,8.26
				l-1.85-1.88c-4.9-4.98-10.97-7.41-18.56-7.41c-15.16,0-26.59,11.18-26.59,26s11.43,26,26.59,26c7.61,0,13.68-2.45,18.54-7.49
				l1.85-1.91l8.28,8.28l-1.68,1.84C201.46,72.34,191.77,76.25,180.66,76.25z M180.75,6.01c-19.47,0-33.6,13.67-33.6,32.51
				s14.09,32.51,33.5,32.51c8.65,0,16.24-2.67,21.66-7.55l-0.99-0.99c-5.52,4.82-12.36,7.25-20.38,7.25
				c-18.14,0-31.81-13.42-31.81-31.22S162.81,7.3,180.95,7.3c7.99,0,14.82,2.41,20.36,7.17l1-1C196.94,8.64,189.39,6.01,180.75,6.01
				z"/>
		</g>
	</g>
	<path fill="#FFAB4D" d="M209.62,13.55l-6.27,10.83c0,0-0.86-1.31-1.99-2.57L209.62,13.55z"/>
	<polyline fill="#FFAB4D" points="209.62,63.4 203.7,52.22 201.34,55.12 	"/>
	<path fill="#FFAB4D" d="M281.9,24.18V1.26H268.9V11.5c-6.95-6.79-15.59-10.22-25.71-10.22c-11.01,0-20.26,4.05-27.48,12.05
		c-6.54,7.22-9.86,15.87-9.86,25.71c0,9.93,3.5,18.72,10.4,26.13c6.96,7.48,16.02,11.27,26.93,11.27c10.27,0,18.91-3.39,25.71-10.07
		v10.11h12.99V55.4c-2.12-4.8-3.19-9.98-3.19-15.51C278.71,34.26,279.78,29.01,281.9,24.18z M262.75,51.01
		c-2.05,3.65-4.72,6.38-8.19,8.36c-3.44,1.96-7.27,2.95-11.4,2.95c-4.13,0-7.97-1-11.4-2.95c-3.46-1.97-6.14-4.71-8.19-8.36
		c-2.04-3.63-3.07-7.59-3.07-11.79c0-6.61,2.2-12.08,6.71-16.72c4.49-4.62,9.71-6.87,15.94-6.87c6.19,0,11.39,2.25,15.91,6.87
		c4.53,4.64,6.74,10.11,6.74,16.71C265.82,43.41,264.78,47.38,262.75,51.01z"/>
	<g>
		<path fill="#FFAB4D" d="M321.11,3.97c10.31,0,18.85,3.73,25.62,11.19c6.16,6.81,9.24,14.86,9.24,24.16
			c0,9.35-3.25,17.51-9.76,24.5c-6.51,6.99-14.88,10.48-25.1,10.48c-10.27,0-18.65-3.49-25.16-10.48
			c-6.51-6.99-9.76-15.16-9.76-24.5c0-9.26,3.08-17.3,9.24-24.1C302.2,7.72,310.76,3.97,321.11,3.97z M321.08,12.4
			c-7.16,0-13.31,2.64-18.45,7.93c-5.14,5.29-7.71,11.68-7.71,19.18c0,4.84,1.17,9.35,3.52,13.53c2.34,4.18,5.51,7.41,9.5,9.68
			c3.99,2.28,8.37,3.41,13.14,3.41c4.77,0,9.15-1.14,13.14-3.41c3.99-2.27,7.16-5.5,9.5-9.68c2.34-4.18,3.52-8.69,3.52-13.53
			c0-7.5-2.58-13.9-7.74-19.18C334.33,15.04,328.19,12.4,321.08,12.4z"/>
		<path fill="#FFAB4D" d="M321.11,77.41c-11.11,0-20.34-3.86-27.43-11.47c-7.03-7.55-10.59-16.5-10.59-26.61
			c0-10.01,3.38-18.82,10.04-26.18c7.35-8.14,16.77-12.27,27.98-12.27c11.17,0,20.56,4.11,27.92,12.2
			c6.67,7.36,10.04,16.19,10.04,26.25c0,10.11-3.56,19.06-10.59,26.61C341.39,73.55,332.18,77.41,321.11,77.41z M321.11,7.07
			c-9.52,0-17.17,3.35-23.39,10.23c-5.68,6.28-8.44,13.48-8.44,22.03c0,8.61,2.92,15.94,8.93,22.39c5.95,6.39,13.44,9.5,22.9,9.5
			c9.41,0,16.88-3.11,22.84-9.5c6.01-6.45,8.93-13.78,8.93-22.39c0-8.59-2.76-15.81-8.44-22.09
			C338.22,10.39,330.59,7.07,321.11,7.07z M321.08,69.23c-5.3,0-10.23-1.28-14.68-3.82c-4.47-2.55-8.06-6.2-10.67-10.86
			c-2.6-4.63-3.91-9.69-3.91-15.04c0-8.3,2.89-15.48,8.59-21.34c5.72-5.89,12.68-8.87,20.67-8.87c7.95,0,14.89,2.98,20.63,8.86
			c5.72,5.86,8.63,13.04,8.63,21.35c0,5.35-1.32,10.41-3.91,15.04c-2.61,4.66-6.2,8.31-10.67,10.86
			C331.31,67.95,326.37,69.23,321.08,69.23z M321.08,15.49c-6.34,0-11.65,2.29-16.23,7c-4.6,4.73-6.84,10.3-6.84,17.03
			c0,4.28,1.05,8.32,3.12,12.01c2.08,3.72,4.81,6.5,8.34,8.51c3.5,1.99,7.4,3.01,11.61,3.01c4.21,0,8.11-1.01,11.61-3.01
			c3.53-2.01,6.25-4.79,8.34-8.51c2.07-3.69,3.12-7.74,3.12-12.01c0-6.72-2.25-12.29-6.86-17.02
			C332.68,17.78,327.38,15.49,321.08,15.49z"/>
	</g>
	<path fill="#FFAB4D" d="M140.62,24.01V1.09h-12.99v10.23C120.67,4.54,112.03,1.1,101.91,1.1c-11.01,0-20.26,4.05-27.48,12.05
		c-6.54,7.22-9.86,15.87-9.86,25.71c0,9.93,3.5,18.72,10.4,26.13c6.96,7.48,16.02,11.27,26.93,11.27c10.27,0,18.91-3.39,25.71-10.07
		v10.11h12.99V55.23c-2.12-4.8-3.19-9.98-3.19-15.51C137.43,34.08,138.5,28.83,140.62,24.01z M121.47,50.83
		c-2.05,3.65-4.72,6.38-8.19,8.36c-3.44,1.96-7.27,2.95-11.4,2.95c-4.13,0-7.97-1-11.4-2.95c-3.46-1.97-6.14-4.71-8.19-8.36
		c-2.04-3.63-3.07-7.59-3.07-11.79c0-6.61,2.2-12.08,6.71-16.72c4.49-4.62,9.71-6.87,15.94-6.87c6.19,0,11.39,2.25,15.91,6.87
		c4.53,4.64,6.74,10.11,6.74,16.71C124.53,43.24,123.5,47.21,121.47,50.83z"/>
	<g>
		<g>
			<path fill="#FFAB4D" d="M3.36,38.49c0-20.22,15.39-35.12,36.21-35.12c10.06,0,19.14,3.35,25.26,10.06l-4.64,4.64
				c-5.62-5.72-12.53-8.19-20.42-8.19c-16.67,0-29.2,12.23-29.2,28.61s12.53,28.61,29.2,28.61c7.89,0,14.8-2.47,20.42-8.29
				l4.64,4.64c-6.12,6.71-15.19,10.16-25.36,10.16C18.75,73.62,3.36,58.72,3.36,38.49z"/>
			<path fill="#FFAB4D" d="M39.47,76.23c-10.71,0-20.53-3.81-27.64-10.71C4.68,58.57,0.75,48.98,0.75,38.49
				c0-10.49,3.94-20.09,11.09-27.02C18.97,4.57,28.81,0.76,39.57,0.76c11.11,0,20.77,3.88,27.19,10.92l1.68,1.84l-8.26,8.26
				l-1.85-1.88c-4.9-4.98-10.97-7.41-18.56-7.41c-15.16,0-26.59,11.18-26.59,26s11.43,26,26.59,26c7.61,0,13.68-2.45,18.55-7.49
				l1.85-1.91l8.28,8.28l-1.68,1.84C60.28,72.32,50.59,76.23,39.47,76.23z M39.57,5.98c-19.47,0-33.6,13.67-33.6,32.51
				s14.09,32.51,33.5,32.51c8.65,0,16.24-2.67,21.66-7.55l-0.99-0.99c-5.52,4.82-12.36,7.25-20.38,7.25
				c-18.14,0-31.81-13.42-31.81-31.22S21.63,7.27,39.76,7.27c7.99,0,14.82,2.41,20.36,7.17l1-1C55.75,8.61,48.2,5.98,39.57,5.98z"/>
		</g>
	</g>
	<path fill="#FFAB4D" d="M68.43,13.52l-6.27,10.83c0,0-0.86-1.31-1.99-2.57L68.43,13.52z"/>
	<polyline fill="#FFAB4D" points="68.43,63.37 62.51,52.19 60.15,55.09 	"/>
</g>
</svg>
